<?xml version="1.0" standalone="no"?>
<!DOCTYPE svg PUBLIC "-//W3C//DTD SVG 20010904//EN"
 "http://www.w3.org/TR/2001/REC-SVG-20010904/DTD/svg10.dtd">
<svg version="1.0" xmlns="http://www.w3.org/2000/svg"
 width="263.000000pt" height="263.000000pt" viewBox="0 0 263.000000 263.000000"
 preserveAspectRatio="xMidYMid meet">
<metadata>
Created by potrace 1.11, written by Peter Selinger 2001-2013
</metadata>
<g transform="translate(0.000000,263.000000) scale(0.100000,-0.100000)"
fill="#000000" stroke="none">
<path d="M409 2578 c0 -2 -2 -20 -3 -42 -1 -30 3 -42 22 -55 73 -50 131 -128
148 -201 4 -19 8 -372 9 -785 l1 -750 23 -45 c38 -73 54 -84 251 -173 103 -46
155 -70 218 -98 34 -16 64 -29 67 -29 3 0 39 -16 81 -35 42 -19 81 -32 87 -28
7 4 17 8 22 9 6 1 33 12 60 24 77 35 135 60 138 58 1 -1 13 5 27 12 14 8 27
15 30 15 3 1 41 19 85 40 44 21 82 39 85 40 20 5 115 60 136 78 26 22 70 97
58 97 -4 0 -2 6 4 13 8 9 11 249 11 775 0 419 3 772 6 784 22 76 87 160 150
195 14 8 19 23 20 57 l2 46 -869 0 c-477 0 -868 -1 -869 -2z"/>
<path d="M2038 743 c2 -65 9 -121 15 -124 18 -12 0 -35 -70 -87 -112 -85 -183
-110 -183 -66 0 13 -7 15 -37 11 -37 -5 -75 -13 -80 -17 -2 -2 -6 -3 -10 -4
-16 -3 -83 -48 -84 -57 -1 -5 -2 -15 -3 -21 -1 -7 1 -21 6 -30 10 -21 -21 -39
-107 -61 -97 -25 -163 -31 -262 -26 -30 2 -124 38 -183 71 -139 78 -174 86
-190 43 -9 -22 -13 -24 -31 -15 -17 10 -20 18 -15 45 6 28 2 36 -22 57 -16 14
-45 30 -63 37 -19 7 -52 20 -74 29 -21 10 -42 17 -45 18 -17 3 -59 25 -65 34
-4 6 0 19 8 28 10 11 13 22 7 33 -5 9 -8 53 -6 98 2 67 0 81 -12 76 -7 -3 -19
-5 -25 -5 -18 0 -62 -42 -80 -75 -15 -31 -29 -85 -28 -118 0 -10 -9 -39 -20
-65 -12 -28 -18 -56 -14 -71 9 -35 69 -86 131 -112 30 -12 54 -26 54 -31 0 -5
4 -7 9 -4 5 3 19 -3 32 -13 13 -10 29 -20 34 -22 37 -15 85 -57 85 -75 0 -47
90 -95 129 -68 18 13 28 11 101 -25 44 -22 80 -38 80 -36 0 2 20 -4 45 -15 25
-11 45 -17 45 -15 0 3 11 0 25 -5 60 -23 200 -29 248 -11 15 6 27 8 27 6 0 -3
16 1 35 9 19 8 35 13 35 10 0 -3 10 1 23 8 12 7 24 13 27 14 9 2 43 16 98 40
52 24 64 39 76 95 6 27 46 49 46 25 0 -30 28 -50 65 -48 40 3 215 69 215 82 0
4 11 10 24 14 21 5 146 120 171 157 31 46 26 134 -8 160 -4 3 -9 21 -11 41 -2
19 -6 40 -10 47 -4 6 -5 11 -1 11 10 0 -25 73 -43 87 -18 15 -63 36 -98 47
-21 6 -21 5 -16 -111z"/>
</g>
</svg>
